REM DIRINDEX 1\2,1\3,1\4,1\5,1\6
REM DIRNAME folder01,folder02,folder03,folder04,folder05,folder06
TITLE ""
FILE "Disc3Track02.mp3" MP3
  TRACK 01 AUDIO
    TITLE "3:cjc030_04113"
    INDEX 01 00:00:00
  TRACK 02 AUDIO
    TITLE "0:"
    INDEX 01 00:01:09
  TRACK 03 AUDIO
    TITLE "4:cjc030_04114"
    INDEX 01 00:01:19
  TRACK 04 AUDIO
    TITLE "0:"
    INDEX 01 00:04:23
  TRACK 05 AUDIO
    TITLE "5:cjc030_04115"
    INDEX 01 00:04:31
  TRACK 06 AUDIO
    TITLE "0:"
    INDEX 01 00:05:46
  TRACK 07 AUDIO
    TITLE "6:cjc030_04116"
    INDEX 01 00:05:59
  TRACK 08 AUDIO
    TITLE "0:"
    INDEX 01 00:09:59
  TRACK 09 AUDIO
    TITLE "3:cjc030_04117"
    INDEX 01 00:10:31
  TRACK 10 AUDIO
    TITLE "0:"
    INDEX 01 00:11:50
  TRACK 11 AUDIO
    TITLE "4:cjc030_04118"
    INDEX 01 00:11:58
  TRACK 12 AUDIO
    TITLE "0:"
    INDEX 01 00:14:39
  TRACK 13 AUDIO
    TITLE "5:cjc030_04119"
    INDEX 01 00:14:49
  TRACK 14 AUDIO
    TITLE "0:"
    INDEX 01 00:15:68
  TRACK 15 AUDIO
    TITLE "6:cjc030_04120"
    INDEX 01 00:16:06
  TRACK 16 AUDIO
    TITLE "0:"
    INDEX 01 00:21:31
  TRACK 17 AUDIO
    TITLE "3:cjc030_04121"
    INDEX 01 00:22:05
  TRACK 18 AUDIO
    TITLE "0:"
    INDEX 01 00:23:38
  TRACK 19 AUDIO
    TITLE "4:cjc030_04122"
    INDEX 01 00:23:46
  TRACK 20 AUDIO
    TITLE "0:"
    INDEX 01 00:26:03
  TRACK 21 AUDIO
    TITLE "5:cjc030_04123"
    INDEX 01 00:26:13
  TRACK 22 AUDIO
    TITLE "0:"
    INDEX 01 00:27:47
  TRACK 23 AUDIO
    TITLE "6:cjc030_04124"
    INDEX 01 00:27:59
  TRACK 24 AUDIO
    TITLE "0:"
    INDEX 01 00:31:41
  TRACK 25 AUDIO
    TITLE "3:cjc030_04125"
    INDEX 01 00:32:13
  TRACK 26 AUDIO
    TITLE "0:"
    INDEX 01 00:33:42
  TRACK 27 AUDIO
    TITLE "4:cjc030_04126"
    INDEX 01 00:33:52
  TRACK 28 AUDIO
    TITLE "0:"
    INDEX 01 00:35:17
  TRACK 29 AUDIO
    TITLE "5:cjc030_04127"
    INDEX 01 00:35:25
  TRACK 30 AUDIO
    TITLE "0:"
    INDEX 01 00:36:56
  TRACK 31 AUDIO
    TITLE "3:cjc030_04128"
    INDEX 01 00:37:34
  TRACK 32 AUDIO
    TITLE "0:"
    INDEX 01 00:38:45
  TRACK 33 AUDIO
    TITLE "4:cjc030_04129"
    INDEX 01 00:38:55
  TRACK 34 AUDIO
    TITLE "0:"
    INDEX 01 00:40:62
  TRACK 35 AUDIO
    TITLE "5:cjc030_04130"
    INDEX 01 00:40:70
  TRACK 36 AUDIO
    TITLE "0:"
    INDEX 01 00:42:08
  TRACK 37 AUDIO
    TITLE "6:cjc030_04131"
    INDEX 01 00:42:21
  TRACK 38 AUDIO
    TITLE "0:"
    INDEX 01 00:46:58
  TRACK 39 AUDIO
    TITLE "3:cjc030_04132"
    INDEX 01 00:47:30
  TRACK 40 AUDIO
    TITLE "0:"
    INDEX 01 00:48:48
  TRACK 41 AUDIO
    TITLE "4:cjc030_04133"
    INDEX 01 00:48:55
  TRACK 42 AUDIO
    TITLE "0:"
    INDEX 01 00:50:37
  TRACK 43 AUDIO
    TITLE "5:cjc030_04134"
    INDEX 01 00:50:46
  TRACK 44 AUDIO
    TITLE "0:"
    INDEX 01 00:51:63
  TRACK 45 AUDIO
    TITLE "3:cjc030_04135"
    INDEX 01 00:52:39
  TRACK 46 AUDIO
    TITLE "0:"
    INDEX 01 00:53:49
  TRACK 47 AUDIO
    TITLE "4:cjc030_04136"
    INDEX 01 00:53:58
  TRACK 48 AUDIO
    TITLE "0:"
    INDEX 01 00:57:66
  TRACK 49 AUDIO
    TITLE "5:cjc030_04137"
    INDEX 01 00:58:01
  TRACK 50 AUDIO
    TITLE "0:"
    INDEX 01 00:59:08
  TRACK 51 AUDIO
    TITLE "6:cjc030_04138"
    INDEX 01 00:59:22
  TRACK 52 AUDIO
    TITLE "0:"
    INDEX 01 01:05:46
  TRACK 53 AUDIO
    TITLE "3:cjc030_04139"
    INDEX 01 01:06:22
  TRACK 54 AUDIO
    TITLE "0:"
    INDEX 01 01:07:43
  TRACK 55 AUDIO
    TITLE "4:cjc030_04140"
    INDEX 01 01:07:53
  TRACK 56 AUDIO
    TITLE "0:"
    INDEX 01 01:10:06
  TRACK 57 AUDIO
    TITLE "5:cjc030_04141"
    INDEX 01 01:10:14
  TRACK 58 AUDIO
    TITLE "0:"
    INDEX 01 01:11:35
  TRACK 59 AUDIO
    TITLE "6:cjc030_04142"
    INDEX 01 01:11:49
  TRACK 60 AUDIO
    TITLE "0:"
    INDEX 01 01:14:23
  TRACK 61 AUDIO
    TITLE "3:cjc030_04143"
    INDEX 01 01:14:68
  TRACK 62 AUDIO
    TITLE "0:"
    INDEX 01 01:16:20
  TRACK 63 AUDIO
    TITLE "4:cjc030_04144"
    INDEX 01 01:16:28
  TRACK 64 AUDIO
    TITLE "0:"
    INDEX 01 01:18:43
  TRACK 65 AUDIO
    TITLE "5:cjc030_04145"
    INDEX 01 01:18:49
  TRACK 66 AUDIO
    TITLE "0:"
    INDEX 01 01:20:00
  TRACK 67 AUDIO
    TITLE "6:cjc030_04146"
    INDEX 01 01:20:14
  TRACK 68 AUDIO
    TITLE "0:"
    INDEX 01 01:22:70
  TRACK 69 AUDIO
    TITLE "3:cjc030_04147"
    INDEX 01 01:23:42
  TRACK 70 AUDIO
    TITLE "0:"
    INDEX 01 01:25:00
  TRACK 71 AUDIO
    TITLE "4:cjc030_04148"
    INDEX 01 01:25:08
  TRACK 72 AUDIO
    TITLE "0:"
    INDEX 01 01:26:03
  TRACK 73 AUDIO
    TITLE "5:cjc030_04149"
    INDEX 01 01:26:13
  TRACK 74 AUDIO
    TITLE "0:"
    INDEX 01 01:27:44
